<?xml version="1.0" encoding="UTF-8" standalone="no"?>
<!-- Uploaded to: SVG Repo, www.svgrepo.com, Generator: SVG Repo Mixer Tools -->

<svg
   width="800"
   height="800"
   viewBox="0 0 16 16"
   version="1.1"
   id="svg1"
   xmlns="http://www.w3.org/2000/svg"
   xmlns:svg="http://www.w3.org/2000/svg">
  <defs
     id="defs1" />
  <path
     fill="#000000"
     d="m 8.0000002,10.307297 c 3.0763948,0 3.0763948,-4.6145939 0,-4.6145939 -3.0763952,0 -3.0763952,4.6145939 0,4.6145939 z"
     style="fill-rule:evenodd;stroke-width:1.15365"
     id="path1-1" />
  <path
     fill="#000000"
     d="m 14.95471,7.9857608 0.11639,0.00976 c 0.5468,0.07776 0.927,0.58405 0.8493,1.13084 -0.2378,1.6719402 -0.9986,3.2258402 -2.1734,4.4390402 -1.1749,1.2131 -2.7035,2.0234 -4.36701,2.3147 C 7.7165,16.1714 6.00349,15.9288 4.48631,15.187 3.77335,14.8385 3.12082,14.3881 2.5472,13.8537 L 1.70711,14.6938 C 1.07714,15.3238 0,14.8776 0,13.9867 V 9.99998 h 3.98673 c 0.8909,0 1.33707,1.07712 0.7071,1.70712 L 3.9626,12.4383 c 0.41746,0.3798 0.88893,0.7011 1.40215,0.952 1.13789,0.5563 2.42264,0.7382 3.67026,0.5198 1.24759,-0.2185 2.39409,-0.8262 3.27519,-1.7361 0.8812,-0.9099 1.4518,-2.0752 1.6301,-3.32924 0.0778,-0.54678 0.5841,-0.927 1.1308,-0.84924 z M 11.5137,0.812976 C 12.2279,1.16215 12.8814,1.61349 13.4558,2.14905 L 14.2929,1.31193 C 14.9229,0.681961 16,1.12813 16,2.01904 v 3.98097 h -3.981 c -0.8909,0 -1.3371,-1.07714 -0.7071,-1.7071 l 0.7285,-0.7285 C 11.6222,3.18346 11.1497,2.86125 10.6353,2.60973 9.49736,2.05342 8.21261,1.87146 6.96499,2.08994 5.71737,2.30841 4.57089,2.91611 3.68976,3.82599 2.80862,4.73586 2.23802,5.90125 2.05969,7.15524 1.98193,7.70202 1.47564,8.08224 0.928858,8.00448 0.382075,7.92672 0.00185585,7.42043 0.0796146,6.87364 0.31739,5.20166 1.07818,3.64782 2.25303,2.43465 3.42788,1.22148 4.95652,0.411217 6.62001,0.119916 c 1.66349,-0.2913 3.3765,-0.0486982 4.89369,0.69306 z"
     id="path1" />
</svg>
