<?xml version="1.0" encoding="UTF-8" standalone="no"?>
<!-- Uploaded to: SVG Repo, www.svgrepo.com, Generator: SVG Repo Mixer Tools -->

<svg
   width="800px"
   height="800px"
   viewBox="0 0 16 16"
   version="1.1"
   id="svg1"
   sodipodi:docname="io.github.tobagin.Issuer-draft-symbolic.svg"
   inkscape:version="1.4.2 (ebf0e940d0, 2025-05-08)"
   xmlns:inkscape="http://www.inkscape.org/namespaces/inkscape"
   xmlns:sodipodi="http://sodipodi.sourceforge.net/DTD/sodipodi-0.dtd"
   xmlns="http://www.w3.org/2000/svg"
   xmlns:svg="http://www.w3.org/2000/svg">
  <defs
     id="defs1" />
  <sodipodi:namedview
     id="namedview1"
     pagecolor="#ffffff"
     bordercolor="#000000"
     borderopacity="0.25"
     inkscape:showpageshadow="2"
     inkscape:pageopacity="0.0"
     inkscape:pagecheckerboard="0"
     inkscape:deskcolor="#d1d1d1"
     inkscape:zoom="0.5575"
     inkscape:cx="400"
     inkscape:cy="399.10314"
     inkscape:window-width="1268"
     inkscape:window-height="924"
     inkscape:window-x="26"
     inkscape:window-y="23"
     inkscape:window-maximized="0"
     inkscape:current-layer="svg1" />
  <path
     fill-rule="evenodd"
     clip-rule="evenodd"
     d="M 6.94,1.009 C 6.7810937,0.48028889 6.2237964,0.18037791 5.695,0.339 3.1175681,1.1147155 1.1029908,3.1345537 0.334,5.714 -0.09242717,7.015681 1.8943002,7.6077589 2.25,6.285 2.8271514,4.3508348 4.33813,2.8364742 6.271,2.255 6.8002227,2.096106 7.1002687,1.53811 6.941,1.009 Z m 2.12,0 C 9.2189063,0.48028889 9.7762036,0.18037791 10.305,0.339 12.882432,1.1147155 14.897009,3.1345537 15.666,5.714 16.092427,7.015681 14.1057,7.6077589 13.75,6.285 13.172688,4.3509305 11.661774,2.8366346 9.729,2.255 9.1997773,2.096106 8.8997313,1.53811 9.059,1.009 Z m 1.245,14.652 c -1.2908378,0.410617 -1.8791698,-1.545383 -0.576,-1.915 1.932726,-0.581954 3.443329,-2.096691 4.02,-4.031 0.380666,-1.2779995 2.297666,-0.7069995 1.917,0.571 -0.768798,2.579207 -2.782952,4.598997 -5.36,5.375 z m -4.61,0 C 6.9858378,16.071617 7.5741698,14.115617 6.271,13.746 4.3382737,13.164046 2.8276707,11.649309 2.251,9.715 1.8703335,8.4370006 -0.0466665,9.0080006 0.334,10.286 c 0.7687983,2.579207 2.7829517,4.598997 5.36,5.375 z"
     fill="#000000"
     id="path1"
     sodipodi:nodetypes="cccccccccccccccccccccccccc" />
</svg>
