<?xml version="1.0" encoding="UTF-8" standalone="no"?>
<!-- Uploaded to: SVG Repo, www.svgrepo.com, Generator: SVG Repo Mixer Tools -->

<svg
   width="800"
   height="800"
   viewBox="0 0 16 16"
   version="1.1"
   id="svg1"
   xmlns="http://www.w3.org/2000/svg"
   xmlns:svg="http://www.w3.org/2000/svg">
  <defs
     id="defs1" />
  <path
     fill="#000000"
     fill-rule="evenodd"
     d="m 8,0 c 4.4183,0 8,3.58172 8,8 0,4.4183 -3.5817,8 -8,8 C 3.58172,16 0,12.4183 0,8 0,3.58172 3.58172,0 8,0 Z M 8,2 C 4.68629,2 2,4.68629 2,8 c 0,3.3137 2.68629,6 6,6 3.3137,0 6,-2.6863 6,-6 C 14,4.68629 11.3137,2 8,2 Z"
     id="path1" />
  <path
     fill="#000000"
     d="m 8.0000003,10.307297 c 3.0763947,0 3.0763947,-4.6145936 0,-4.6145936 -3.0763952,0 -3.0763952,4.6145936 0,4.6145936 z"
     style="fill-rule:evenodd;stroke-width:1.15365"
     id="path1-1" />
</svg>
